<svg width="20" height="17" viewBox="0 0 20 17" fill="none" xmlns="http://www.w3.org/2000/svg">
<path fill-rule="evenodd" clip-rule="evenodd" d="M0.666687 1.83333C0.666687 1.47971 0.807163 1.14057 1.05721 0.890525C1.30726 0.640476 1.6464 0.5 2.00002 0.5H18C18.3536 0.5 18.6928 0.640476 18.9428 0.890525C19.1929 1.14057 19.3334 1.47971 19.3334 1.83333C19.3334 2.18696 19.1929 2.52609 18.9428 2.77614C18.6928 3.02619 18.3536 3.16667 18 3.16667H2.00002C1.6464 3.16667 1.30726 3.02619 1.05721 2.77614C0.807163 2.52609 0.666687 2.18696 0.666687 1.83333ZM0.666687 8.5C0.666687 8.14638 0.807163 7.80724 1.05721 7.55719C1.30726 7.30714 1.6464 7.16667 2.00002 7.16667H18C18.3536 7.16667 18.6928 7.30714 18.9428 7.55719C19.1929 7.80724 19.3334 8.14638 19.3334 8.5C19.3334 8.85362 19.1929 9.19276 18.9428 9.44281C18.6928 9.69286 18.3536 9.83333 18 9.83333H2.00002C1.6464 9.83333 1.30726 9.69286 1.05721 9.44281C0.807163 9.19276 0.666687 8.85362 0.666687 8.5ZM0.666687 15.1667C0.666687 14.813 0.807163 14.4739 1.05721 14.2239C1.30726 13.9738 1.6464 13.8333 2.00002 13.8333H18C18.3536 13.8333 18.6928 13.9738 18.9428 14.2239C19.1929 14.4739 19.3334 14.813 19.3334 15.1667C19.3334 15.5203 19.1929 15.8594 18.9428 16.1095C18.6928 16.3595 18.3536 16.5 18 16.5H2.00002C1.6464 16.5 1.30726 16.3595 1.05721 16.1095C0.807163 15.8594 0.666687 15.5203 0.666687 15.1667Z" fill="white"/>
</svg>
